# xmcd
#
# Track frame offsets: 
#        150
#        14142
#        33615
#        46810
#        58020
#        75970
#        90575
#        109175
#        128312
#        148370
#        164232
#        177015
#        188805
#        207905
#        230747
#        240940
#        256995
#        274875
#
# Disc length: 3911 seconds
#
# Revision: 0
# Processed by: cddbd v1.5.2PL0 Copyright (c) Steve Scherf et al.
# Submitted via: ExactAudioCopyFreeDBPlugin 1.0
#
DISCID=fa0f4512
DTITLE=Various Artist - Platinum Ballade 7580
DYEAR=1900
DGENRE=
TTITLE0=최백호 - 입영전야
TTITLE1=양희은 - 사랑이야
TTITLE2=전영록 - 애심
TTITLE3=윤형주 - 조개껍질 묶어
TTITLE4=박은옥 - 회상
TTITLE5=함중아 - 내게도 사랑이
TTITLE6=송창식 - 가위 바위 보
TTITLE7=건아들 - 젊은 미소
TTITLE8=열기들 - 그대로 그렇게
TTITLE9=윤시내 - 천년
TTITLE10=김민식 - 첫사랑의 생일
TTITLE11=이정선 - 구름 들꽃 돌 여인
TTITLE12=양희은 - 들길 따라서
TTITLE13=김정호 - 고독한 여자의 미소는 슬퍼
TTITLE14=송창식 - 돌돌이와 석순이
TTITLE15=박인수 - 당신은 별을 보고 울어 보셨나요
TTITLE16=사랑과 평화 - 얘기할 수 없어요
TTITLE17=옥슨 80 - 불놀이야
EXTD=
EXTT0=
EXTT1=
EXTT2=
EXTT3=
EXTT4=
EXTT5=
EXTT6=
EXTT7=
EXTT8=
EXTT9=
EXTT10=
EXTT11=
EXTT12=
EXTT13=
EXTT14=
EXTT15=
EXTT16=
EXTT17=
PLAYORDER=
